<svg xmlns="http://www.w3.org/2000/svg" viewBox="0 0 300 278.333"><defs><style>.a{fill:#fff;}.b{fill:#fa0;}.c{fill:#00a0f0;}</style></defs><g transform="translate(0 0)"><rect class="a" width="300" height="278.333"/><g transform="translate(25 25.167)"><path class="b" d="M135,198a17.5,17.5,0,1,0,17.5,17.5A17.5,17.5,0,0,0,135,198" transform="translate(-103.334 -157.166)"/><path class="c" d="M535,560.5v10h3.334v36.671H535v10h51.667v10h20V560.5m-48.333,46.667v-5h28.334v5H558.333m0-15.835v-5h28.334v5H558.333m0-15.835v-5h28.334v5H558.333" transform="translate(-381.667 -398.833)"/><g transform="translate(130)"><path class="c" d="M659.239,220.5H607.572v11.667h9.667L606.358,255.5h14l10.88-23.333h4.667l-11.359,24.36a36.47,36.47,0,0,1,11.63,5.083l13.73-29.444h4.667l-14.943,32.045a36.841,36.841,0,0,1,7.7,9.052l11.91-25.541V260.5l-8.89,19.064a36.415,36.415,0,0,1,1.882,7.6H621.739v41.667h37.5V400.5h20V287.167H666.8L679.239,260.5v-40Zm0,98.333h-17.5V315.5h17.5Zm0-13.333h-17.5v-3.333h17.5Z" transform="translate(-559.239 -172.167)"/><path class="c" d="M485,158.833h25V130.5l-6.111-11.667,9.444-26.667V75.5H465V303.833h20V232.167h37.5V190.5H485Zm0-40V92.167h9.444L485,118.833l9.444,16.667v6.667H485Zm17.5,103.333H485v-3.334h17.5v3.334Zm0-16.667v3.333H485V205.5Z" transform="translate(-465 -75.5)"/></g><path class="c" d="M691.667,75.5H625v43.333h66.667V75.5M645,108.833V105.5h26.667v3.334H645M645,95.5V92.162h26.667V95.5H645" transform="translate(-441.667 -75.5)"/><path class="c" d="M293.333,147.166V133.833H310v13.333H293.333m0-28.333V105.5H310v13.333H293.333M330,90.5H273.333v75.389L270,200.5h20l3.333-34.611v-3.722H310v3.722L306.667,200.5h20L330,165.888V90.5" transform="translate(-205 -85.499)"/><path class="c" d="M336.667,420.5,280,432.167V533.833h20V477.163h10v56.671h20V477.163h6.667v-15H300v-15l36.667-7.5V420.5" transform="translate(-211.667 -305.5)"/><path class="c" d="M138.333,103.833v-15H116.667V75.5h-20V88.833H75v15H96.667v5H75v50H96.667v5H75v15H96.667v23.333H75v15H85v15H75v15H96.667v6.671H75v15H96.667L75,284.588v19.245l21.667-15.755v15.755h20V288.079l21.667,15.755V284.588l-21.667-15.755h21.667v-15H116.667v-6.671h21.667v-15h-10v-15h10v-15H116.667V178.833h21.667v-15H116.667v-5h21.667v-50H116.667v-5ZM101.662,232.167v-15h10v15Zm26.671-98.333a21.667,21.667,0,1,1-21.667-21.667A21.666,21.666,0,0,1,128.333,133.833Z" transform="translate(-75 -75.5)"/><path class="b" d="M603.729,367.167a31.67,31.67,0,0,0-62.545,0Z" transform="translate(-385.789 -252.167)"/></g></g></svg>