<svg xmlns="http://www.w3.org/2000/svg" xmlns:xlink="http://www.w3.org/1999/xlink" viewBox="0 0 50 50"><defs><style>.a{fill:url(#a);}</style><linearGradient id="a" x1="0.962" y1="0.961" x2="0.04" y2="0.039" gradientUnits="objectBoundingBox"><stop offset="0" stop-color="#ffdc78"/><stop offset="0.128" stop-color="#ffe498"/><stop offset="0.306" stop-color="#ffeebd"/><stop offset="0.484" stop-color="#fff5da"/><stop offset="0.66" stop-color="#fffbee"/><stop offset="0.833" stop-color="#fffefb"/><stop offset="1" stop-color="#fff"/></linearGradient></defs><path class="a" d="M43.385,0H6.713A6.707,6.707,0,0,0,0,6.7V43.2A6.729,6.729,0,0,0,6.713,50H24.748V32.1H20.139a1.111,1.111,0,0,1-1.1-1.1V25.2a1.111,1.111,0,0,1,1.1-1.1h4.609V18.5c0-6.5,3.908-10,9.719-10h4.709a1.111,1.111,0,0,1,1.1,1.1v4.9a1.111,1.111,0,0,1-1.1,1.1H36.271c-3.106,0-3.707,1.5-3.707,3.7v4.8h6.913a1.074,1.074,0,0,1,1.1,1.2l-.7,5.8a1.092,1.092,0,0,1-1.1,1H32.564V50H43.284A6.707,6.707,0,0,0,50,43.3V6.7A6.56,6.56,0,0,0,43.385,0Z"/></svg>