<svg xmlns="http://www.w3.org/2000/svg" xmlns:xlink="http://www.w3.org/1999/xlink" viewBox="0 0 49.999 50.001"><defs><style>.a{fill:url(#a);}</style><linearGradient id="a" x1="0.961" y1="0.961" x2="0.039" y2="0.039" gradientUnits="objectBoundingBox"><stop offset="0" stop-color="#ffdc78"/><stop offset="0.128" stop-color="#ffe498"/><stop offset="0.306" stop-color="#ffeebd"/><stop offset="0.484" stop-color="#fff5da"/><stop offset="0.66" stop-color="#fffbee"/><stop offset="0.833" stop-color="#fffefb"/><stop offset="1" stop-color="#fff"/></linearGradient></defs><path class="a" d="M43.262,55.381H6.738A6.738,6.738,0,0,0,0,62.119V98.644a6.738,6.738,0,0,0,6.738,6.738H24.752l.031-17.867H20.14a1.1,1.1,0,0,1-1.095-1.091l-.022-5.759a1.1,1.1,0,0,1,1.095-1.1h4.634V74c0-6.458,3.944-9.975,9.705-9.975h4.728a1.1,1.1,0,0,1,1.1,1.1v4.856a1.1,1.1,0,0,1-1.1,1.1h-2.9c-3.133,0-3.74,1.489-3.74,3.674v4.818h6.884a1.1,1.1,0,0,1,1.088,1.224l-.683,5.759a1.1,1.1,0,0,1-1.088.966H32.574l-.031,17.867H43.261A6.738,6.738,0,0,0,50,98.643V62.119A6.736,6.736,0,0,0,43.262,55.381Z" transform="translate(0 -55.381)"/></svg>