<svg xmlns="http://www.w3.org/2000/svg" viewBox="0 0 20 20"><defs><style>.a{fill:#fff;}</style></defs><path class="a" d="M18.9,66.773H1.1a1.1,1.1,0,0,0-1.1,1.1V85.669a1.1,1.1,0,0,0,1.1,1.1h9.579V79.038h-2.6V76.011h2.6V73.783a3.631,3.631,0,0,1,2.3-3.73,4.593,4.593,0,0,1,1.579-.26h0c.138,0,.274,0,.406,0,.925.016,1.682.083,1.924.116v2.7H15.305c-1.254,0-1.5.6-1.5,1.47v1.928h3l-.39,3.027H13.808v7.734H18.9a1.1,1.1,0,0,0,1.1-1.1V67.877A1.1,1.1,0,0,0,18.9,66.773Z" transform="translate(0 -66.773)"/></svg>