<svg xmlns="http://www.w3.org/2000/svg" viewBox="0 0 20 20"><defs><style>.a{fill:#fff;}</style></defs><path class="a" d="M18.9,0H1.1A1.1,1.1,0,0,0,0,1.1V18.9A1.1,1.1,0,0,0,1.1,20H18.9A1.1,1.1,0,0,0,20,18.9V1.1A1.1,1.1,0,0,0,18.9,0Zm-2.29,13.319a1.727,1.727,0,0,1-1.219,1.219A41.225,41.225,0,0,1,10,14.826a41.225,41.225,0,0,1-5.387-.288,1.727,1.727,0,0,1-1.219-1.219A17.926,17.926,0,0,1,3.105,10a17.951,17.951,0,0,1,.288-3.319A1.727,1.727,0,0,1,4.612,5.462,41.234,41.234,0,0,1,10,5.174a41.225,41.225,0,0,1,5.387.288,1.727,1.727,0,0,1,1.219,1.219A17.951,17.951,0,0,1,16.894,10,17.914,17.914,0,0,1,16.606,13.319Z"/><path class="a" d="M21.553,23.966,25.135,21.9l-3.582-2.068Z" transform="translate(-12.932 -11.897)"/></svg>