<svg xmlns="http://www.w3.org/2000/svg" viewBox="0 0 40 27.999"><defs><style>.a{fill:#fff;}</style></defs><path class="a" d="M39.163,59.756a5.009,5.009,0,0,0-3.537-3.537C32.508,55.384,20,55.384,20,55.384s-12.508,0-15.627.835A5.009,5.009,0,0,0,.835,59.756C0,62.875,0,69.383,0,69.383s0,6.508.835,9.627a5.009,5.009,0,0,0,3.537,3.537c3.119.835,15.627.835,15.627.835s12.508,0,15.627-.835a5.009,5.009,0,0,0,3.537-3.537C40,75.892,40,69.383,40,69.383S40,62.875,39.163,59.756ZM16,75.383v-12l10.392,6Z" transform="translate(0 -55.384)"/></svg>