<svg xmlns="http://www.w3.org/2000/svg" xmlns:xlink="http://www.w3.org/1999/xlink" viewBox="0 0 50 50"><defs><style>.a{fill:url(#a);}</style><linearGradient id="a" x1="0.962" y1="0.961" x2="0.04" y2="0.039" gradientUnits="objectBoundingBox"><stop offset="0" stop-color="#ffdc78"/><stop offset="0.128" stop-color="#ffe498"/><stop offset="0.306" stop-color="#ffeebd"/><stop offset="0.484" stop-color="#fff5da"/><stop offset="0.66" stop-color="#fffbee"/><stop offset="0.833" stop-color="#fffefb"/><stop offset="1" stop-color="#fff"/></linearGradient></defs><path class="a" d="M43.385,0H6.713A6.707,6.707,0,0,0,0,6.7V43.2A6.729,6.729,0,0,0,6.713,50H43.284A6.707,6.707,0,0,0,50,43.3V6.7A6.56,6.56,0,0,0,43.385,0ZM33.565,25.7,19.839,32.2a.548.548,0,0,1-.8-.5V18.3a.548.548,0,0,1,.8-.5l13.727,6.9A.566.566,0,0,1,33.565,25.7Z"/></svg>