<svg xmlns="http://www.w3.org/2000/svg" xmlns:xlink="http://www.w3.org/1999/xlink" viewBox="0 0 50 35.382"><defs><style>.a{fill:url(#a);}</style><linearGradient id="a" x1="0.866" y1="1.017" x2="0.134" y2="-0.017" gradientUnits="objectBoundingBox"><stop offset="0" stop-color="#ffdc78"/><stop offset="0.128" stop-color="#ffe498"/><stop offset="0.306" stop-color="#ffeebd"/><stop offset="0.484" stop-color="#fff5da"/><stop offset="0.66" stop-color="#fffbee"/><stop offset="0.833" stop-color="#fffefb"/><stop offset="1" stop-color="#fff"/></linearGradient></defs><path class="a" d="M39.616,0H10.385A10.385,10.385,0,0,0,0,10.384V25A10.386,10.386,0,0,0,10.385,35.382H39.616A10.385,10.385,0,0,0,50,25V10.384A10.384,10.384,0,0,0,39.616,0ZM32.593,18.4,18.92,24.923a.549.549,0,0,1-.785-.5V10.977a.548.548,0,0,1,.8-.489l13.673,6.928A.55.55,0,0,1,32.593,18.4Z"/></svg>