<svg xmlns="http://www.w3.org/2000/svg" viewBox="0 0 45 31.499"><defs><style>.a{fill:#fff;}</style></defs><path class="a" d="M44.059,60.3a5.636,5.636,0,0,0-3.979-3.979c-3.509-.94-17.581-.94-17.581-.94s-14.072,0-17.581.94A5.636,5.636,0,0,0,.94,60.3C0,63.811,0,71.133,0,71.133s0,7.322.94,10.831a5.636,5.636,0,0,0,3.979,3.979c3.509.94,17.581.94,17.581.94s14.072,0,17.581-.94a5.636,5.636,0,0,0,3.979-3.979C45,78.455,45,71.133,45,71.133S45,63.811,44.059,60.3ZM18,77.883v-13.5l11.691,6.75Z" transform="translate(0 -55.384)"/></svg>