<svg xmlns="http://www.w3.org/2000/svg" xmlns:xlink="http://www.w3.org/1999/xlink" viewBox="0 0 50 35.38"><defs><style>.cls-1{fill:url(#未命名漸層_138);}</style><linearGradient id="未命名漸層_138" x1="43.3" y1="35.99" x2="6.7" y2="-0.61" gradientUnits="userSpaceOnUse"><stop offset="0" stop-color="#ffdc78"/><stop offset="0.13" stop-color="#ffe498"/><stop offset="0.31" stop-color="#ffeebd"/><stop offset="0.48" stop-color="#fff5da"/><stop offset="0.66" stop-color="#fffbee"/><stop offset="0.83" stop-color="#fffefb"/><stop offset="1" stop-color="#fff"/></linearGradient></defs><title>youtube</title><g id="圖層_2" data-name="圖層 2"><g id="圖層_1-2" data-name="圖層 1"><path class="cls-1" d="M39.62,0H10.38A10.38,10.38,0,0,0,0,10.38V25A10.38,10.38,0,0,0,10.38,35.38H39.62A10.38,10.38,0,0,0,50,25V10.38A10.38,10.38,0,0,0,39.62,0Zm-7,18.4L18.92,24.92a.54.54,0,0,1-.78-.49V11a.54.54,0,0,1,.79-.49L32.6,17.42A.54.54,0,0,1,32.59,18.4Z"/></g></g></svg>